<mxfile host="Electron" modified="2024-09-11T03:00:03.349Z" agent="Mozilla/5.0 (X11; Linux x86_64) AppleWebKit/537.36 (KHTML, like Gecko) draw.io/24.6.4 Chrome/124.0.6367.207 Electron/30.0.6 Safari/537.36" etag="4mFScpRxNnUW6XT00YKq" version="24.6.4" type="device">
  <diagram name="Page-1" id="m4iIgLOHqaQY3L-FcXyy">
    <mxGraphModel dx="1195" dy="699" grid="1" gridSize="10" guides="1" tooltips="1" connect="1" arrows="1" fold="1" page="1" pageScale="1" pageWidth="850" pageHeight="1100" math="0" shadow="0">
      <root>
        <mxCell id="0" />
        <mxCell id="1" parent="0" />
        <mxCell id="9dwM6D8t3pHvhcGUcmuB-18" style="edgeStyle=orthogonalEdgeStyle;rounded=0;orthogonalLoop=1;jettySize=auto;html=1;entryX=0;entryY=0.5;entryDx=0;entryDy=0;exitX=1;exitY=0.5;exitDx=0;exitDy=0;curved=1;" edge="1" parent="1" source="9dwM6D8t3pHvhcGUcmuB-1" target="9dwM6D8t3pHvhcGUcmuB-2">
          <mxGeometry relative="1" as="geometry" />
        </mxCell>
        <mxCell id="9dwM6D8t3pHvhcGUcmuB-22" value="user&lt;br&gt;connected" style="edgeLabel;html=1;align=center;verticalAlign=middle;resizable=0;points=[];" vertex="1" connectable="0" parent="9dwM6D8t3pHvhcGUcmuB-18">
          <mxGeometry x="0.2167" relative="1" as="geometry">
            <mxPoint x="-11" as="offset" />
          </mxGeometry>
        </mxCell>
        <mxCell id="9dwM6D8t3pHvhcGUcmuB-1" value="ERROR&lt;br&gt;DELIVER" style="ellipse;whiteSpace=wrap;html=1;aspect=fixed;fillColor=#fff2cc;strokeColor=#d6b656;" vertex="1" parent="1">
          <mxGeometry x="340" y="350" width="80" height="80" as="geometry" />
        </mxCell>
        <mxCell id="9dwM6D8t3pHvhcGUcmuB-2" value="ERROR" style="ellipse;whiteSpace=wrap;html=1;aspect=fixed;fillColor=#f8cecc;strokeColor=#b85450;strokeWidth=5;" vertex="1" parent="1">
          <mxGeometry x="520" y="350" width="80" height="80" as="geometry" />
        </mxCell>
        <mxCell id="9dwM6D8t3pHvhcGUcmuB-8" style="edgeStyle=orthogonalEdgeStyle;rounded=0;orthogonalLoop=1;jettySize=auto;html=1;entryX=0;entryY=0.5;entryDx=0;entryDy=0;curved=1;exitX=0.5;exitY=1;exitDx=0;exitDy=0;" edge="1" parent="1" source="9dwM6D8t3pHvhcGUcmuB-3" target="9dwM6D8t3pHvhcGUcmuB-1">
          <mxGeometry relative="1" as="geometry" />
        </mxCell>
        <mxCell id="9dwM6D8t3pHvhcGUcmuB-10" value="on analysis&lt;br&gt;failure" style="edgeLabel;html=1;align=center;verticalAlign=middle;resizable=0;points=[];" vertex="1" connectable="0" parent="9dwM6D8t3pHvhcGUcmuB-8">
          <mxGeometry x="-0.3636" y="11" relative="1" as="geometry">
            <mxPoint as="offset" />
          </mxGeometry>
        </mxCell>
        <mxCell id="9dwM6D8t3pHvhcGUcmuB-23" style="edgeStyle=orthogonalEdgeStyle;rounded=0;orthogonalLoop=1;jettySize=auto;html=1;entryX=0.5;entryY=1;entryDx=0;entryDy=0;curved=1;" edge="1" parent="1" source="9dwM6D8t3pHvhcGUcmuB-3" target="9dwM6D8t3pHvhcGUcmuB-5">
          <mxGeometry relative="1" as="geometry" />
        </mxCell>
        <mxCell id="9dwM6D8t3pHvhcGUcmuB-24" value="on analysis&lt;br&gt;success" style="edgeLabel;html=1;align=center;verticalAlign=middle;resizable=0;points=[];" vertex="1" connectable="0" parent="9dwM6D8t3pHvhcGUcmuB-23">
          <mxGeometry x="-0.1364" y="11" relative="1" as="geometry">
            <mxPoint as="offset" />
          </mxGeometry>
        </mxCell>
        <mxCell id="9dwM6D8t3pHvhcGUcmuB-3" value="ANALYZING" style="ellipse;whiteSpace=wrap;html=1;aspect=fixed;fillColor=#fff2cc;strokeColor=#d6b656;" vertex="1" parent="1">
          <mxGeometry x="240" y="250" width="80" height="80" as="geometry" />
        </mxCell>
        <mxCell id="9dwM6D8t3pHvhcGUcmuB-4" value="ANALYZED" style="ellipse;whiteSpace=wrap;html=1;aspect=fixed;fillColor=#d5e8d4;strokeColor=#82b366;strokeWidth=4;" vertex="1" parent="1">
          <mxGeometry x="520" y="160" width="80" height="80" as="geometry" />
        </mxCell>
        <mxCell id="9dwM6D8t3pHvhcGUcmuB-25" style="edgeStyle=orthogonalEdgeStyle;rounded=0;orthogonalLoop=1;jettySize=auto;html=1;entryX=0;entryY=0.5;entryDx=0;entryDy=0;" edge="1" parent="1" source="9dwM6D8t3pHvhcGUcmuB-5" target="9dwM6D8t3pHvhcGUcmuB-4">
          <mxGeometry relative="1" as="geometry" />
        </mxCell>
        <mxCell id="9dwM6D8t3pHvhcGUcmuB-26" value="user&lt;br&gt;connected" style="edgeLabel;html=1;align=center;verticalAlign=middle;resizable=0;points=[];" vertex="1" connectable="0" parent="9dwM6D8t3pHvhcGUcmuB-25">
          <mxGeometry x="0.5" y="1" relative="1" as="geometry">
            <mxPoint x="-25" y="1" as="offset" />
          </mxGeometry>
        </mxCell>
        <mxCell id="9dwM6D8t3pHvhcGUcmuB-5" value="DELIVER" style="ellipse;whiteSpace=wrap;html=1;aspect=fixed;fillColor=#fff2cc;strokeColor=#d6b656;" vertex="1" parent="1">
          <mxGeometry x="340" y="160" width="80" height="80" as="geometry" />
        </mxCell>
        <mxCell id="9dwM6D8t3pHvhcGUcmuB-7" style="edgeStyle=orthogonalEdgeStyle;rounded=0;orthogonalLoop=1;jettySize=auto;html=1;entryX=0.5;entryY=0;entryDx=0;entryDy=0;curved=1;exitX=1;exitY=0.5;exitDx=0;exitDy=0;" edge="1" parent="1" source="9dwM6D8t3pHvhcGUcmuB-6" target="9dwM6D8t3pHvhcGUcmuB-3">
          <mxGeometry relative="1" as="geometry" />
        </mxCell>
        <mxCell id="9dwM6D8t3pHvhcGUcmuB-6" value="Start" style="ellipse;whiteSpace=wrap;html=1;aspect=fixed;fillColor=#dae8fc;strokeColor=#6c8ebf;strokeWidth=4;" vertex="1" parent="1">
          <mxGeometry x="160" y="160" width="80" height="80" as="geometry" />
        </mxCell>
      </root>
    </mxGraphModel>
  </diagram>
</mxfile>
